<svg style="display:none"><defs><svg id="op3-icons-action-74-2" xmlns="http://www.w3.org/2000/svg" viewBox="0 0 32 32"><path fill="currentColor" d="M28.166.14L1.143 4.064a.998.998 0 00-.846 1.13L.881 9.25a1 1 0 001.137.846l27.064-3.989c.264-.039.501-.182.66-.396a.992.992 0 00.182-.748L29.297.975A.993.993 0 0028.166.14zM2 12a1 1 0 00-1 1v18a1 1 0 001 1h28a1 1 0 001-1V13a1 1 0 00-1-1H2zm11 5l9 5-9 5V17z"/></svg><svg id="op3-icons-alert-circle-que-2" xmlns="http://www.w3.org/2000/svg" viewBox="0 0 32 32"><path fill="currentColor" d="M16 0C7.178 0 0 7.178 0 16s7.178 16 16 16 16-7.178 16-16S24.822 0 16 0zm.828 7c1.586 0 2.845.387 3.776 1.164S22 10.014 22 11.383c0 1.149-.312 2.066-1.074 2.973-.958 1.141-2.714 2.136-3.373 3.142-.385.586-.383 1.267-.383 1.908h-2.38c0-.736-.052-1.813.485-2.793.323-.59.89-1.203 1.7-1.834 1.605-1.267 2.283-1.924 2.283-3.275 0-1.504-1.124-2.113-2.635-2.113-.996 0-2.1.152-4.055 1.117l-1.02-2.137A10.677 10.677 0 0116.829 7zM16 22a2 2 0 11.001 3.999A2 2 0 0116 22z"/></svg><svg id="op3-icons-bold-remove-2" xmlns="http://www.w3.org/2000/svg" viewBox="0 0 32 32"><path fill="currentColor" d="M8 3c-.25 0-.5.1-.7.3l-4 4c-.4.4-.4 1 0 1.4l7.3 7.3-7.3 7.3c-.4.4-.4 1 0 1.4l4 4c.4.4 1 .4 1.4 0l7.3-7.3 7.3 7.3c.2.2.5.3.7.3s.5-.1.7-.3l4-4c.4-.4.4-1 0-1.4L21.4 16l7.3-7.3c.4-.4.4-1 0-1.4l-4-4c-.4-.4-1-.4-1.4 0L16 10.6 8.7 3.3C8.5 3.1 8.25 3 8 3z"/></svg><svg id="op3-icons-button-circle-play-2" xmlns="http://www.w3.org/2000/svg" viewBox="0 0 32 32"><path fill="currentColor" d="M16 0C7.178 0 0 7.178 0 16s7.178 16 16 16 16-7.178 16-16S24.822 0 16 0zm-3.967 8c.176.006.35.059.504.156l11 7a1.001 1.001 0 010 1.688l-11 7a1.01 1.01 0 01-1.017.033A1.002 1.002 0 0111 23V9a1.002 1.002 0 011.033-1z"/></svg><svg id="op3-icons-chat-round-2" xmlns="http://www.w3.org/2000/svg" viewBox="0 0 32 32"><path fill="currentColor" d="M16 1C7 1 0 6.7 0 14s7.2 13.301 16 13.301c1.4 0 2.8-.2 4.1-.5l7.5 3.1c.1.1.3.1.4.1.2 0 .4-.1.6-.2.3-.2.4-.5.4-.9l-.5-6.702C30.8 19.9 32 17 32 14c0-7.3-7-13-16-13z"/></svg><svg id="op3-icons-check-bold-2" xmlns="http://www.w3.org/2000/svg" viewBox="0 0 32 32"><path fill="currentColor" d="M27 4L12 17l-7-5-4 3 11 12L31 6l-4-2z"/></svg><svg id="op3-icons-check-circle-07-2" xmlns="http://www.w3.org/2000/svg" viewBox="0 0 32 32"><path fill="currentColor" d="M15 3C7.28 3 1 9.28 1 17s6.28 14 14 14 14-6.28 14-14a13.91 13.91 0 00-1.21-5.67l-1.513 1.607C26.737 14.21 27 15.572 27 17c0 6.617-5.383 12-12 12S3 23.617 3 17 8.383 5 15 5c2.64 0 5.075.867 7.059 2.316l1.552-1.332A13.926 13.926 0 0015.001 3zm14 1L15 16l-6-5-2 2 8 9L31 5l-2-1z"/></svg><svg id="op3-icons-check-simple-2" xmlns="http://www.w3.org/2000/svg" viewBox="0 0 32 32"><path fill="currentColor" d="M26 4c-.25 0-.5.1-.7.3L12 17.6l-5.301-5.3c-.4-.4-.998-.4-1.398 0l-4 4c-.4.4-.4.998 0 1.398l10 10c.2.2.499.301.699.301s.499-.1.699-.3l18-18c.4-.4.4-1 0-1.399l-4-4c-.2-.2-.45-.3-.7-.3z"/></svg><svg id="op3-icons-currency-dollar-2" xmlns="http://www.w3.org/2000/svg" viewBox="0 0 32 32"><path fill="currentColor" d="M15 1v3c-2.199.228-4.179.884-5.465 1.947C8.25 7.012 7.607 8.37 7.607 10.02c0 1.542.451 2.835 1.354 3.88.902 1.048 2.334 1.947 4.295 2.7l1.744.556v6.707c-2.433-.026-5.42-.76-7.535-1.793v3.784c1.9.86 4.57 1.315 7.535 1.363V31h2v-4c2.391-.263 4.367-.847 5.635-1.97 1.267-1.125 1.9-2.555 1.9-4.288 0-1.399-.435-2.582-1.308-3.55-.873-.969-2.446-1.887-4.717-2.76L17 13.91V7.385c1.853.143 3.865.585 5.742 1.326l1.309-3.281C21.875 4.533 19.427 4.083 17 4V1h-2zm0 6.455V13c-1.789-.744-3.178-1.134-3.178-3.018 0-1.683 1.517-2.277 3.178-2.527zM17 18c1.778.655 3.305 1.242 3.305 3.012 0 1.482-1.201 2.386-3.305 2.709V18z"/></svg><svg id="op3-icons-discount-2-2" xmlns="http://www.w3.org/2000/svg" viewBox="0 0 32 32"><path fill="currentColor" d="M16 0l-5 4H5a1 1 0 00-1 1v6l-4 5 4 5v6a1 1 0 001 1h6l5 4 5-4h6a1 1 0 001-1v-6l4-5-4-5V5a1 1 0 00-1-1h-6l-5-4zm-5 8c1.654 0 3 1.346 3 3v1c0 1.654-1.346 3-3 3s-3-1.346-3-3v-1c0-1.654 1.346-3 3-3zm10 1.586L22.414 11 11 22.414 9.586 21 21 9.586zM11 10c-.551 0-1 .449-1 1v1c0 .551.449 1 1 1s1-.449 1-1v-1c0-.551-.449-1-1-1zm10 7c1.654 0 3 1.346 3 3v1c0 1.654-1.346 3-3 3s-3-1.346-3-3v-1c0-1.654 1.346-3 3-3zm0 2c-.551 0-1 .449-1 1v1c0 .551.449 1 1 1s1-.449 1-1v-1c0-.551-.449-1-1-1z"/></svg><svg id="op3-icons-email-83-1" xmlns="http://www.w3.org/2000/svg" viewBox="0 0 32 32"><path fill="currentColor" d="M0 4v24h32V4H0zm2 2h28v3.4l-14 7.467L2 9.4V6zm0 5.666l14 7.467 14-7.467V26H2V11.666z"/></svg><svg id="op3-icons-folder-download-2" xmlns="http://www.w3.org/2000/svg" viewBox="0 0 32 32"><path fill="currentColor" d="M1 1a1 1 0 00-1 1v28a1 1 0 001 1h30a1 1 0 001-1V6a1 1 0 00-1-1H15.5l-2.7-3.6A1.003 1.003 0 0012 1H1zm14 10h2v11.586l4-4L22.414 20l-5.707 5.707a.997.997 0 01-1.414 0L9.586 20 11 18.586l4 4V11z"/></svg><svg id="op3-icons-multiple-11-2" xmlns="http://www.w3.org/2000/svg" viewBox="0 0 32 32"><path fill="currentColor" d="M16 0a4 4 0 100 8 4 4 0 000-8zM6 3a3 3 0 100 6 3 3 0 000-6zm20 0a3 3 0 100 6 3 3 0 000-6zm-12 7c-2.757 0-5 2.243-5 5v8h3v8h8v-8h3v-8c0-2.757-2.243-5-5-5h-4zM4 11c-2.206 0-4 1.794-4 4v6h2v7h7v-3H7V15a6.96 6.96 0 011.25-3.982C8.167 11.013 8.084 11 8 11H4zm20 0c-.084 0-.167.013-.25.018A6.96 6.96 0 0125 15v10h-2v3h7v-7h2v-6c0-2.206-1.794-4-4-4h-4z"/></svg><svg id="op3-icons-phone-call-1" xmlns="http://www.w3.org/2000/svg" viewBox="0 0 32 32"><path fill="currentColor" d="M18 0v2h1c6.087 0 11 4.913 11 11v1h2v-1c0-7.168-5.832-13-13-13h-1zM6 .586l-6 6V7c0 13.795 11.205 25 25 25h.414l6-6L23 17.586l-5 5L9.414 14l5-5L6 .586zm0 2.828L11.586 9l-5 5L18 25.414l5-5L28.586 26l-3.963 3.963C12.216 29.759 2.24 19.783 2.037 7.377L6 3.414zM18 6v2h1c2.774 0 5 2.226 5 5v1h2v-1c0-3.854-3.146-7-7-7h-1z"/></svg><svg id="op3-icons-send-3" xmlns="http://www.w3.org/2000/svg" viewBox="0 0 32 32"><path fill="currentColor" d="M29.961.527a.973.973 0 00-.262.073l-28 10C1 10.9.9 11.9 1.5 12.3l5.1 3.8 8.3-4.4c.5-.3 1 .4.6.8L9 18v9.4c0 .9 1.1 1.3 1.7.7l4.9-5.3 8.8 6.5c.6.4 1.4.1 1.6-.6l5-27c.088-.7-.437-1.248-1.039-1.173z"/></svg><svg id="op3-icons-single-01-1" xmlns="http://www.w3.org/2000/svg" viewBox="0 0 32 32"><path fill="currentColor" d="M16 0c-4.406 0-8 3.594-8 8v2c0 4.406 3.594 8 8 8s8-3.594 8-8V8c0-4.406-3.594-8-8-8zm0 2c3.326 0 6 2.674 6 6v2c0 3.326-2.674 6-6 6s-6-2.674-6-6V8c0-3.326 2.674-6 6-6zm0 18c-5.332 0-9.288 1.011-11.711 1.887a4.998 4.998 0 00-3.29 4.7V32h30v-5.412a4.998 4.998 0 00-3.288-4.701C25.288 21.01 21.332 20 16 20zm0 2c5.08 0 8.8.961 11.031 1.768A2.98 2.98 0 0129 26.588V30H3v-3.412c0-1.27.78-2.39 1.969-2.82C7.2 22.96 10.92 22 15.999 22z"/></svg><svg id="op3-icons-small-right" xmlns="http://www.w3.org/2000/svg" viewBox="0 0 32 32"><path fill="currentColor" d="M13 8.586L11.586 10l6 6-6 6L13 23.414 20.414 16 13 8.586z"/></svg></defs></svg>