<svg style="display:none"><defs><svg id="op3-icons-chat-round-2" xmlns="http://www.w3.org/2000/svg" viewBox="0 0 32 32"><path fill="currentColor" d="M16 1C7 1 0 6.7 0 14s7.2 13.301 16 13.301c1.4 0 2.8-.2 4.1-.5l7.5 3.1c.1.1.3.1.4.1.2 0 .4-.1.6-.2.3-.2.4-.5.4-.9l-.5-6.702C30.8 19.9 32 17 32 14c0-7.3-7-13-16-13z"/></svg><svg id="op3-icons-email-83-1" xmlns="http://www.w3.org/2000/svg" viewBox="0 0 32 32"><path fill="currentColor" d="M0 4v24h32V4H0zm2 2h28v3.4l-14 7.467L2 9.4V6zm0 5.666l14 7.467 14-7.467V26H2V11.666z"/></svg><svg id="op3-icons-phone-call-1" xmlns="http://www.w3.org/2000/svg" viewBox="0 0 32 32"><path fill="currentColor" d="M18 0v2h1c6.087 0 11 4.913 11 11v1h2v-1c0-7.168-5.832-13-13-13h-1zM6 .586l-6 6V7c0 13.795 11.205 25 25 25h.414l6-6L23 17.586l-5 5L9.414 14l5-5L6 .586zm0 2.828L11.586 9l-5 5L18 25.414l5-5L28.586 26l-3.963 3.963C12.216 29.759 2.24 19.783 2.037 7.377L6 3.414zM18 6v2h1c2.774 0 5 2.226 5 5v1h2v-1c0-3.854-3.146-7-7-7h-1z"/></svg><svg id="op3-icons-single-01-1" xmlns="http://www.w3.org/2000/svg" viewBox="0 0 32 32"><path fill="currentColor" d="M16 0c-4.406 0-8 3.594-8 8v2c0 4.406 3.594 8 8 8s8-3.594 8-8V8c0-4.406-3.594-8-8-8zm0 2c3.326 0 6 2.674 6 6v2c0 3.326-2.674 6-6 6s-6-2.674-6-6V8c0-3.326 2.674-6 6-6zm0 18c-5.332 0-9.288 1.011-11.711 1.887a4.998 4.998 0 00-3.29 4.7V32h30v-5.412a4.998 4.998 0 00-3.288-4.701C25.288 21.01 21.332 20 16 20zm0 2c5.08 0 8.8.961 11.031 1.768A2.98 2.98 0 0129 26.588V30H3v-3.412c0-1.27.78-2.39 1.969-2.82C7.2 22.96 10.92 22 15.999 22z"/></svg><svg id="op3-icons-small-right" xmlns="http://www.w3.org/2000/svg" viewBox="0 0 32 32"><path fill="currentColor" d="M13 8.586L11.586 10l6 6-6 6L13 23.414 20.414 16 13 8.586z"/></svg></defs></svg>