<svg xmlns="http://www.w3.org/2000/svg" width="387" height="50" viewBox="0 0 387 50" fill="none"><path d="M31.3248 31H7.79645C3.75517 31 0.348633 27.7627 0.348633 23.7214H4.38992C4.38992 25.5199 5.84987 26.9587 7.79645 26.9587H31.3248C33.2714 26.9587 34.7313 25.5199 34.7313 23.7214V21.0978C34.7313 19.2993 33.2714 17.8605 31.3248 17.8605H7.79645C3.75517 17.8605 0.348633 14.6021 0.348633 10.582V7.93714C0.348633 3.91701 3.75517 0.658585 7.79645 0.658585H31.3248C35.3873 0.658585 38.7726 3.91701 38.7726 7.93714H34.7313C34.7313 6.15982 33.2714 4.72103 31.3248 4.72103H7.79645C5.84987 4.72103 4.38992 6.15982 4.38992 7.93714V10.582C4.38992 12.3804 5.84987 13.8192 7.79645 13.8192H31.3248C35.3873 13.8192 38.7726 17.0565 38.7726 21.0978V23.7214C38.7726 27.7627 35.3873 31 31.3248 31Z" fill="white"></path><path d="M44.5633 31H40.522V0.658585H44.5633V31Z" fill="white"></path><path d="M77.2677 31H53.7394C49.6981 31 46.2915 27.7627 46.2915 23.7214H50.3328C50.3328 25.5199 51.7928 26.9587 53.7394 26.9587H77.2677C79.2143 26.9587 80.6742 25.5199 80.6742 23.7214V21.0978C80.6742 19.2993 79.2143 17.8605 77.2677 17.8605H53.7394C49.6981 17.8605 46.2915 14.6021 46.2915 10.582V7.93714C46.2915 3.91701 49.6981 0.658585 53.7394 0.658585H77.2677C81.3302 0.658585 84.7155 3.91701 84.7155 7.93714H80.6742C80.6742 6.15982 79.2143 4.72103 77.2677 4.72103H53.7394C51.7928 4.72103 50.3328 6.15982 50.3328 7.93714V10.582C50.3328 12.3804 51.7928 13.8192 53.7394 13.8192H77.2677C81.3302 13.8192 84.7155 17.0565 84.7155 21.0978V23.7214C84.7155 27.7627 81.3302 31 77.2677 31Z" fill="white"></path><path d="M107.454 31H103.413V4.72103H85.2166V0.658585H125.651V4.72103H107.454V31Z" fill="white"></path><path d="M164.449 31H127.04V0.658585H164.449V4.72103H131.082V13.8192H160.407V17.8605H131.082V26.9587H164.449V31Z" fill="white"></path><path d="M210.885 31H206.823V7.53512L190.657 26.1335H186.616L170.43 7.53512V31H166.389V0.658585H170.43L188.626 22.0922L206.823 0.658585H210.885V31Z" fill="white"></path><path d="M256.708 31H251.862L247.8 24.9275H220.125L216.083 31H211.217L231.444 0.658585H236.501L256.708 31ZM245.113 20.8862L233.962 4.17091L222.833 20.8862H245.113Z" fill="white"></path><path d="M297.975 31H273.706C269.262 31 265.623 27.3607 265.623 22.9174V8.76232C265.623 4.29786 269.262 0.658585 273.706 0.658585H297.975C302.418 0.658585 306.057 4.29786 306.057 8.76232H302.016C302.016 6.4772 300.26 4.72103 297.975 4.72103H273.706C271.421 4.72103 269.664 6.4772 269.664 8.76232V22.9174C269.664 25.1814 271.421 26.9587 273.706 26.9587H297.975C300.26 26.9587 302.016 25.1814 302.016 22.9174V17.8605H285.851V13.8192H306.057V22.9174C306.057 27.3607 302.418 31 297.975 31Z" fill="#E4874A"></path><path d="M312.165 31H308.124V0.658585H339.46C343.924 0.658585 347.564 4.29786 347.564 8.76232V14.8137C347.564 19.2781 343.924 22.9174 339.46 22.9174H312.165V31ZM339.46 18.8761C341.745 18.8761 343.522 17.0988 343.522 14.8137V8.76232C343.522 6.4772 341.745 4.72103 339.46 4.72103H312.165V18.8761H339.46Z" fill="#E4874A"></path><path d="M379.062 31H355.534C351.492 31 348.086 27.7627 348.086 23.7214H352.127C352.127 25.5199 353.587 26.9587 355.534 26.9587H379.062C381.009 26.9587 382.468 25.5199 382.468 23.7214V21.0978C382.468 19.2993 381.009 17.8605 379.062 17.8605H355.534C351.492 17.8605 348.086 14.6021 348.086 10.582V7.93714C348.086 3.91701 351.492 0.658585 355.534 0.658585H379.062C383.124 0.658585 386.51 3.91701 386.51 7.93714H382.468C382.468 6.15982 381.009 4.72103 379.062 4.72103H355.534C353.587 4.72103 352.127 6.15982 352.127 7.93714V10.582C352.127 12.3804 353.587 13.8192 355.534 13.8192H379.062C383.124 13.8192 386.51 17.0565 386.51 21.0978V23.7214C386.51 27.7627 383.124 31 379.062 31Z" fill="#E4874A"></path><path d="M43.8915 49.9202H35.4618V42.0144H43.8915C45.0492 42.0144 45.9975 42.9626 45.9975 44.1259V47.8142C45.9975 48.972 45.0492 49.9202 43.8915 49.9202ZM43.8915 48.8672C44.4869 48.8672 44.9445 48.4041 44.9445 47.8142V44.1259C44.9445 43.5305 44.4869 43.0729 43.8915 43.0729H36.5149V48.8672H43.8915Z" fill="white"></path><path d="M65.183 49.9202H58.3302C57.1724 49.9202 56.2242 48.972 56.2242 47.8142V44.1259C56.2242 42.9626 57.1724 42.0144 58.3302 42.0144H65.183C66.3408 42.0144 67.2891 42.9626 67.2891 44.1259V47.8142C67.2891 48.972 66.3408 49.9202 65.183 49.9202ZM65.183 48.8672C65.7784 48.8672 66.236 48.4041 66.236 47.8142V44.1259C66.236 43.5305 65.7784 43.0729 65.183 43.0729H58.3302C57.7403 43.0729 57.2772 43.5305 57.2772 44.1259V47.8142C57.2772 48.4041 57.7403 48.8672 58.3302 48.8672H65.183Z" fill="white"></path><path d="M101.244 49.9202H100.186V43.8061L95.9735 48.6522H94.9205L90.703 43.8061V49.9202H89.65V42.0144H90.703L95.4443 47.5992L100.186 42.0144H101.244V49.9202Z" fill="white"></path><path d="M122.894 49.9202H121.632L120.573 48.3379H113.362L112.309 49.9202H111.041L116.311 42.0144H117.629L122.894 49.9202ZM119.873 47.2849L116.967 42.9295L114.067 47.2849H119.873Z" fill="white"></path><path d="M133.738 49.9202H132.685V42.0144H140.85C142.013 42.0144 142.962 42.9626 142.962 44.1259V45.7027C142.962 46.8659 142.013 47.8142 140.85 47.8142H133.738V49.9202ZM140.85 46.7612C141.446 46.7612 141.909 46.2981 141.909 45.7027V44.1259C141.909 43.5305 141.446 43.0729 140.85 43.0729H133.738V46.7612H140.85Z" fill="white"></path><path d="M163.36 49.9202H162.098L161.039 48.3379H153.828L152.775 49.9202H151.507L156.777 42.0144H158.095L163.36 49.9202ZM160.339 47.2849L157.434 42.9295L154.534 47.2849H160.339Z" fill="white"></path><path d="M193.594 49.9202H185.164V42.0144H193.594C194.752 42.0144 195.7 42.9626 195.7 44.1259V47.8142C195.7 48.972 194.752 49.9202 193.594 49.9202ZM193.594 48.8672C194.189 48.8672 194.647 48.4041 194.647 47.8142V44.1259C194.647 43.5305 194.189 43.0729 193.594 43.0729H186.217V48.8672H193.594Z" fill="white"></path><path d="M214.885 49.9202H208.033C206.875 49.9202 205.927 48.972 205.927 47.8142V44.1259C205.927 42.9626 206.875 42.0144 208.033 42.0144H214.885C216.043 42.0144 216.991 42.9626 216.991 44.1259V47.8142C216.991 48.972 216.043 49.9202 214.885 49.9202ZM214.885 48.8672C215.481 48.8672 215.938 48.4041 215.938 47.8142V44.1259C215.938 43.5305 215.481 43.0729 214.885 43.0729H208.033C207.443 43.0729 206.98 43.5305 206.98 44.1259V47.8142C206.98 48.4041 207.443 48.8672 208.033 48.8672H214.885Z" fill="white"></path><path d="M240.405 49.9202H239.352V42.0144H249.1V43.0729H240.405V45.7027H248.047V46.7612H240.405V49.9202Z" fill="white"></path><path d="M267.546 49.9202H261.223C260.065 49.9202 259.117 48.972 259.117 47.8142V42.0144H260.17V47.8142C260.17 48.4041 260.627 48.8672 261.223 48.8672H267.546C268.142 48.8672 268.599 48.4041 268.599 47.8142V42.0144H269.652V47.8142C269.652 48.972 268.704 49.9202 267.546 49.9202Z" fill="white"></path><path d="M285.453 49.9202H284.4V43.0729H279.659V42.0144H290.194V43.0729H285.453V49.9202Z" fill="white"></path><path d="M308.696 49.9202H302.373C301.215 49.9202 300.267 48.972 300.267 47.8142V42.0144H301.32V47.8142C301.32 48.4041 301.777 48.8672 302.373 48.8672H308.696C309.292 48.8672 309.749 48.4041 309.749 47.8142V42.0144H310.802V47.8142C310.802 48.972 309.854 49.9202 308.696 49.9202Z" fill="white"></path><path d="M331.41 49.9202H330.291L328.891 47.2849H322.187V49.9202H321.134V42.0144H329.299C330.456 42.0144 331.405 42.9626 331.405 44.1259V45.1789C331.405 46.1051 330.793 46.9045 329.955 47.1802L331.41 49.9202ZM329.299 46.2319C329.894 46.2319 330.357 45.7688 330.357 45.1789V44.1259C330.357 43.5305 329.894 43.0729 329.299 43.0729H322.187V46.2319H329.299Z" fill="white"></path><path d="M350.403 49.9202H343.55C342.392 49.9202 341.444 48.972 341.444 47.8142V44.1259C341.444 42.9626 342.392 42.0144 343.55 42.0144H350.403C351.56 42.0144 352.509 42.9626 352.509 44.1259V47.8142C352.509 48.972 351.56 49.9202 350.403 49.9202ZM350.403 48.8672C350.998 48.8672 351.456 48.4041 351.456 47.8142V44.1259C351.456 43.5305 350.998 43.0729 350.403 43.0729H343.55C342.96 43.0729 342.497 43.5305 342.497 44.1259V47.8142C342.497 48.4041 342.96 48.8672 343.55 48.8672H350.403Z" fill="white"></path></svg>